{"title":"36.Saints(2013)720p.WEB-DL.H264.AAC.Raven","uid":11232337,"size":648178401,"categoryP":"video","categoryS":"movies","magnet":"?xt=urn:btih:dc35c58a098e59864e6fb4dc4a6852d4805171e8&amp;dn=36.Saints%282013%29720p.WEB-DL.H264.AAC.Raven&amp;tr=udp%3A%2F%2Ftracker.openbittorrent.com%3A80&amp;tr=udp%3A%2F%2Fopen.demonii.com%3A1337&amp;tr=udp%3A%2F%2Ftracker.coppersurfer.tk%3A6969&amp;tr=udp%3A%2F%2Fexodus.desync.com%3A6969","seeders":0,"leechers":1,"uploader":"Raven1969","files":-1,"time":1413556614,"description":"36.Saints(2013)720p.WEB-DL.H264.AAC.Raven.mp4\n\n\n\nScreen images:\n\n\n &lt;a href=&quot;\nhttp://i.imgur.com/FLwQOEe.png&quot; rel=&quot;nofollow&quot; target=&quot;_NEW&quot;&gt;\nhttp://i.imgur.com/FLwQOEe.png&lt;/a&gt;\n\n &lt;a href=&quot;\nhttp://i.imgur.com/aKxVJyX.png&quot; rel=&quot;nofollow&quot; target=&quot;_NEW&quot;&gt;\nhttp://i.imgur.com/aKxVJyX.png&lt;/a&gt;\n\n &lt;a href=&quot;\nhttp://i.imgur.com/mKypb79.png&quot; rel=&quot;nofollow&quot; target=&quot;_NEW&quot;&gt;\nhttp://i.imgur.com/mKypb79.png&lt;/a&gt;\n\n &lt;a href=&quot;\nhttp://i.imgur.com/6gsZD3b.png&quot; rel=&quot;nofollow&quot; target=&quot;_NEW&quot;&gt;\nhttp://i.imgur.com/6gsZD3b.png&lt;/a&gt;\n\n &lt;a href=&quot;\nhttp://i.imgur.com/Ml3MCjz.png&quot; rel=&quot;nofollow&quot; target=&quot;_NEW&quot;&gt;\nhttp://i.imgur.com/Ml3MCjz.png&lt;/a&gt;\n\n\n\n\nStoryline:\n\n&quot;Seven&quot; meets &quot;The Da Vinci Code,&quot; when New York Police Headquarters is confronted with the horror of a serial murderer loose on the streets of Manhattan. Oblivious to the danger, a group of hip students from all over the world, who now attend school together in New York, are planning a memorial to celebrate the lives of their lost &quot;brothers and sisters&quot; who died suddenly in a tragic plane crash a year prior. Aspiring actress EVE, her athletic boyfriend SEBASTIAN, bad boy gone good DOMINIC, tough but sweet JOAN, hip hop mogul on the rise, VALENTINE and beautiful, carefree MARIA, soon begin to turn up dead, one by one. As more dead bodies mount, detectives JOSEPH and MICHAEL are in a race against time to stop the serial killing. The crime scenes and the way each victim was killed lead the detectives to theorize that each of the killings may be linked to the victims' ancient namesakes. Those namesakes are known to be some of the most saintly people that have graced the earth. As ...\n\nGeneral\nFormat                                   : MPEG-4\nFormat profile                           : Base Media\nCodec ID                                 : isom\nFile size                                : 613 MiB\nDuration                                 : 1h 21mn\nOverall bit rate mode                    : Variable\nOverall bit rate                         : 1 045 Kbps\nEncoded date                             : UTC 2014-10-17 03:12:36\nTagged date                              : UTC 2014-10-17 03:12:36\n\nVideo\nID                                       : 1\nFormat                                   : AVC\nFormat/Info                              : Advanced Video Codec\nFormat profile                           : &lt;a class=&quot;__cf_email__&quot; href=&quot;/cdn-cgi/l/email-protection&quot; data-cfemail=&quot;367e5f515e767a021806&quot;&gt;[email&amp;#160;protected]&lt;/a&gt;&lt;script cf-hash='f9e31' type=&quot;text/javascript&quot;&gt;\n/* &lt;![CDATA[ */!function(){try{var t=&quot;currentScript&quot;in document?document.currentScript:function(){for(var t=document.getElementsByTagName(&quot;script&quot;),e=t.length;e--;)if(t[e].getAttribute(&quot;cf-hash&quot;))return t[e]}();if(t&amp;&amp;t.previousSibling){var e,r,n,i,c=t.previousSibling,a=c.getAttribute(&quot;data-cfemail&quot;);if(a){for(e=&quot;&quot;,r=parseInt(a.substr(0,2),16),n=2;a.length-n;n+=2)i=parseInt(a.substr(n,2),16)^r,e+=String.fromCharCode(i);e=document.createTextNode(e),c.parentNode.replaceChild(e,c)}}}catch(u){}}();/* ]]&gt; */&lt;/script&gt;\nFormat settings, CABAC                   : Yes\nFormat settings, ReFrames                : 12 frames\nCodec ID                                 : avc1\nCodec ID/Info                            : Advanced Video Coding\nDuration                                 : 1h 21mn\nBit rate                                 : 950 Kbps\nMaximum bit rate                         : 6 481 Kbps\nWidth                                    : 1 280 pixels\nHeight                                   : 544 pixels\nDisplay aspect ratio                     : 2.35:1\nOriginal display aspect ratio            : 2.35:1\nFrame rate mode                          : Constant\nFrame rate                               : 23.976 fps\nColor space                              : YUV\nChroma subsampling                       : 4:2:0\nBit depth                                : 8 bits\nScan type                                : Progressive\nBits/(Pixel*Frame)                       : 0.057\nStream size                              : 557 MiB (91%)\nWriting library                          : x264 core 132 \nEncoded date                             : UTC 2014-10-17 03:12:36\nTagged date                              : UTC 2014-10-17 03:12:55\n\nAudio\nID                                       : 2\nFormat                                   : AAC\nFormat/Info                              : Advanced Audio Codec\nFormat profile                           : LC\nCodec ID                                 : 40\nDuration                                 : 1h 21mn\nBit rate mode                            : Variable\nBit rate                                 : 92.0 Kbps\nMaximum bit rate                         : 116 Kbps\nChannel(s)                               : 2 channels\nChannel positions                        : Front: L R\nSampling rate                            : 48.0 KHz\nCompression mode                         : Lossy\nStream size                              : 54.0 MiB (9%)\nEncoded date                             : UTC 2014-10-17 02:06:34\nTagged date                              : UTC 2014-10-17 03:12:55\n\n\n\n\nPLEASE  SEED FOR AS LONG AS POSSIBLE TO KEEP THE TORRENT ALIVE :-)","torrent":{"xt":"urn:btih:dc35c58a098e59864e6fb4dc4a6852d4805171e8","amp;dn":"36.Saints%282013%29720p.WEB-DL.H264.AAC.Raven","amp;tr":["udp%3A%2F%2Ftracker.openbittorrent.com%3A80","udp%3A%2F%2Fopen.demonii.com%3A1337","udp%3A%2F%2Ftracker.coppersurfer.tk%3A6969","udp%3A%2F%2Fexodus.desync.com%3A6969"],"infoHash":"dc35c58a098e59864e6fb4dc4a6852d4805171e8","infoHashBuffer":{"type":"Buffer","data":[220,53,197,138,9,142,89,134,78,111,180,220,74,104,82,212,128,81,113,232]},"announce":[],"urlList":[]}}